PathFileType	4	(X/Y/Z)	Patient4_TMGait_0pt7_01_right_20.trc.trc
DataRate	CameraRate	NumFrames	NumMarkers	Units	OrigDataRate	OrigDataStartFrame	OrigNumFrames
88.050314465409	88.050314465409	5	33	mm	88.050314465409	124	       141
Frame#	Time	Sacral			L.Shoulder			Chest			R.Shoulder			Neck			R.ASIS			L.ASIS			R.Thigh.Superior			R.Thigh.Lateral			R.Thigh.Inferior			R.Patella			L.Thigh.Superior			L.Thigh.Lateral			L.Thigh.Inferior			L.Patella			L.Shank.Superior			L.Shank.Lateral			L.Shank.Inferior			R.Shank.Superior			R.Shank.Lateral			R.Shank.Inferior			R.Heel			R.Midfoot.Superior			R.Midfoot.Lateral			R.Toe			L.Heel			L.Midfoot.Lateral			L.Midfoot.Superior			L.Toe			L.Elbow			L.Wrist			R.Elbow			R.Wrist			
		X1	Y1	Z1	X2	Y2	Z2	X3	Y3	Z3	X4	Y4	Z4	X5	Y5	Z5	X6	Y6	Z6	X7	Y7	Z7	X8	Y8	Z8	X9	Y9	Z9	X10	Y10	Z10	X11	Y11	Z11	X12	Y12	Z12	X13	Y13	Z13	X14	Y14	Z14	X15	Y15	Z15	X16	Y16	Z16	X17	Y17	Z17	X18	Y18	Z18	X19	Y19	Z19	X20	Y20	Z20	X21	Y21	Z21	X22	Y22	Z22	X23	Y23	Z23	X24	Y24	Z24	X25	Y25	Z25	X26	Y26	Z26	X27	Y27	Z27	X28	Y28	Z28	X29	Y29	Z29	X30	Y30	Z30	X31	Y31	Z31	X32	Y32	Z32	X33	Y33	Z33	

124	23.806928571429	874.619040871978	989.823067604540	430.693799048056	1070.172983133980	1420.470372621430	251.755130942695	1167.257956189445	1344.641599940259	414.107864355028	1081.460238976294	1423.118498546984	584.510941084838	1071.139735756085	1477.053730316312	404.006412870568	1100.985147150572	928.390439447969	550.960410100878	1088.220689919996	942.596369258899	276.280021297203	1174.760324010995	753.168173395260	526.658511521434	1123.003162300804	631.896499181083	597.849482655747	1212.447810943881	595.910805472282	519.376590079032	1239.932226445562	514.467652842117	532.348592402407	1089.361119096499	720.414903235656	302.526423027356	968.871231275564	629.303078116243	239.861674651078	1025.731522643546	532.474233005547	302.587128889493	1007.758199054299	463.368305694092	310.853768633254	968.282765680037	399.817764745513	302.114466843220	856.108536367493	306.005232162941	254.019831227640	885.625922582487	185.737275662165	321.089298311993	1229.644840981468	423.766108045665	543.357943088525	1180.038720630453	309.153920140045	607.077016667680	1249.399303151110	225.070191941315	553.355148748376	1156.856109855202	43.291907450545	527.579221088170	1321.706793247321	111.711610908907	561.758065771216	1243.181004772167	39.907494682799	597.543794248609	1446.369208990733	70.440530356989	582.503347056454	738.725005221558	41.731685020998	366.151648515423	806.921567264346	36.391956996277	281.437993672686	893.651630696825	95.168998252938	303.401657736218	1018.289224620080	39.741859721600	263.970044369002	1110.191047480913	1086.793000622194	109.838773343401	1355.543043351000	1120.817403180413	154.381101252082	926.301536963482	1127.180942170491	717.671248641718	886.698256025602	868.074505215277	729.952948871074	
125	23.818285714286	876.532403205149	988.271098034591	433.843629970384	1070.206866916039	1418.973418384491	254.315094862188	1168.248479729590	1343.802161615314	416.495840418224	1082.472008965210	1421.992823732566	587.127474489146	1071.508013374098	1475.815108761178	406.621923897655	1103.631928055079	926.727023031619	553.317547243683	1089.804344747092	941.121377301618	278.751447242101	1177.249206333339	750.875182482086	528.532487130863	1123.546592726437	629.634393237803	597.893971921101	1213.147754224260	593.736694846672	519.796655800309	1238.835270860893	511.059954294845	531.469840152151	1090.914237684714	718.982088902919	303.992255550174	969.885134678416	627.997894958881	242.022399706857	1027.348853834622	530.717909514340	303.883265192949	1009.314716440843	460.630617337508	311.612740502319	967.629008808176	397.845228721926	303.121533780391	853.074867811104	306.768506446892	255.103663179447	880.178526147707	185.552476349932	321.290488345270	1227.542719496019	420.030309536924	542.342691883288	1176.264638857553	306.137317164562	606.125141044021	1243.341681802861	220.968939354081	551.436581844868	1146.326871354650	42.201352298099	526.543055696256	1313.212506380894	106.890367979628	558.917621624029	1232.880691126817	37.971318995858	596.356459328568	1437.110616301143	62.692712663830	579.349568868079	730.899384690024	43.546896020858	366.043564769294	799.090514520939	37.249192640087	281.428470916948	886.405599686085	95.348975819007	303.159113251077	1010.396232265084	39.460530763386	263.809309731696	1109.342471466594	1084.868382589439	112.421728113541	1353.940771665839	1122.435026372996	157.841169568218	925.970483552227	1126.402196718506	718.929131293343	884.986929125252	867.311366180764	730.211544986498	
126	23.829642857143	878.206446280693	987.132364476849	436.987922088255	1070.462987132894	1417.722778587076	256.922251854216	1169.344163312473	1343.128194661521	418.980164194855	1083.671246491983	1421.116199660958	589.838047127557	1072.158675548287	1474.891908808191	409.340918273270	1106.036871977749	925.514461770997	555.835003264361	1091.163207197114	940.100929805428	281.377289100275	1179.634678662001	749.277588322483	530.464515730632	1124.398282813908	628.150245724060	598.172388651125	1214.051532803578	592.309446934347	520.323598455979	1238.187107011161	508.405023423709	530.850738156769	1092.814298208542	717.918404509981	305.626597834220	971.646427010816	626.676950810894	244.335294520491	1030.144465141727	529.092386900220	305.247523989023	1012.188726264070	457.858788588559	312.289441455752	968.010113330049	395.896148281216	304.114432176928	850.885118458650	307.941207338034	256.262869882688	875.286040576295	185.714359000779	321.451427102256	1225.793162341898	417.074579351706	541.562542589521	1172.957105006444	303.941433668702	605.600489993461	1237.546245626844	217.634804658780	549.816938280754	1136.035035544445	41.590379679824	525.847503983361	1304.836486301736	103.025242382138	556.499419159559	1222.818463363318	36.702857216761	595.533410005416	1427.982445829560	56.259675524550	576.707144501590	723.267638947166	46.337199831445	365.928826682193	791.361740510513	38.669161441260	281.424878618378	879.493209184099	95.699558094815	302.828495038443	1002.480110863477	39.135658063364	263.657659101629	1107.730603532420	1082.924667385341	115.293538966726	1351.903391047647	1122.613202694208	161.250579663329	926.706812652274	1125.144918977732	720.133873136472	884.802954187787	865.979004804910	730.421486742119	
127	23.841000000000	879.625668817325	986.464618632401	440.097499005461	1070.962719737114	1416.816808090852	259.559419502639	1170.526475404416	1342.670158840620	421.536432198982	1085.055089763791	1420.552064592184	592.608948422937	1073.102259929848	1474.345197747003	412.136386574362	1108.151194353203	924.818700896655	558.501104764183	1092.248155672454	939.606259304947	284.147325891552	1181.797707511539	748.398074167823	532.433740234951	1125.470392137533	627.452731310239	598.767041008085	1214.998092073174	591.571011544025	521.001329913675	1237.824800734214	506.511855727339	530.614559351460	1095.040697061907	717.290100842844	307.434449561825	974.207506272592	625.382774024762	246.740645104644	1034.183058680394	527.669763683125	306.634685495163	1016.429645117463	455.148180719677	312.827035035237	969.520563827185	394.047873244262	305.031459502063	849.660735452339	309.615866355743	257.455878948424	871.078021816063	186.339824395779	321.544210197464	1224.283082108877	414.918149934129	541.126603810109	1170.050638961449	302.554099239506	605.564061287811	1232.059328316189	215.117444994542	548.607822231839	1126.271502357837	41.359086603806	525.480323589506	1296.722428765223	100.212107753533	554.631126332641	1213.260791822056	36.014418746461	595.069247690098	1419.186978679851	51.367402515962	574.712158884791	715.947564578533	50.338205948327	365.818396190981	783.803865973132	40.827075978951	281.433709322619	873.011507563879	96.284177458787	302.404326689961	994.536779137907	38.754653112495	263.529016293871	1105.324840252123	1081.088049506081	118.465468177063	1349.461647975325	1121.351859537899	164.591441259177	928.555723430015	1123.470415449839	721.312412474038	886.251946974064	864.138453941644	730.514272115530	
128	23.852357142857	880.795760138809	986.288142503301	443.168795517104	1071.698527590389	1416.327520324278	262.210376062624	1171.765425601132	1342.463209005567	424.133766666970	1086.604481376588	1420.342270936820	595.401373886568	1074.315096889262	1474.205025081744	414.972309218201	1109.951355433185	924.660415619399	561.299606078452	1093.033133788589	939.659888571658	287.046909273374	1183.643926022616	748.188315915522	534.430636194448	1126.615432364650	627.461509199347	599.718110343340	1215.814101359479	591.390773892168	521.877392595222	1237.526654684487	505.295587234829	530.844633193762	1097.573937203681	717.140499914149	309.410569192626	977.610546204285	624.156539297090	249.168148265166	1039.495971972816	526.517052678172	307.992708239839	1022.049300275397	452.598585830167	313.175703634257	972.239513497420	392.375758230332	305.814847759246	849.519490418478	311.867338622892	258.637075531938	867.689069956762	187.537280752190	321.548423094382	1222.828708517005	413.486953344076	541.095724417919	1167.361720491997	301.875355522794	606.001222101947	1226.812786040624	213.368316796241	547.859889044475	1117.145231226037	41.396427161552	525.398061750772	1288.887367311812	98.414331150074	553.356582484913	1204.300849475280	35.775404187682	594.920731777607	1410.790245541716	48.015608554596	573.397255176178	709.086337393025	55.759793633969	365.724677351991	776.513031380026	43.901774040933	281.461177040770	867.065514179820	97.175041720200	301.893938262155	986.575905961572	38.301473462817	263.438346203819	1102.116868255713	1079.480723876545	121.938893722412	1346.626466338935	1118.656789355222	167.851586105962	931.515320966264	1121.463131911146	722.495193945561	889.432647572777	861.874674890743	730.438218469662	
